<?xml version="1.0" encoding="utf-8"?>
<svg version="1.0" xmlns="http://www.w3.org/2000/svg" width="1056.000000pt" height="992.000000pt" viewBox="0 0 1056.000000 992.000000" preserveAspectRatio="xMidYMid meet" xmlns:bx="https://boxy-svg.com">
  <defs>
    <bx:export>
      <bx:file format="svg" href="#object-0" path="Unbetitelt.svg" units="pt"/>
    </bx:export>
  </defs>
  <g transform="matrix(0.123447, 0, 0, -0.123447, -122.815201, 1110.184204)" fill="#000000" stroke="none" style="">
    <path d="M3563 5951 c-92 -65 -197 -138 -233 -162 l-65 -45 -9 -72 c-4 -41 -6 -76 -3 -78 3 -3 38 16 79 43 109 74 249 156 254 150 9 -9 -216 -188 -263 -210 -22 -10 -32 -27 -16 -27 5 0 114 -19 245 -41 l237 -42 178 73 c98 40 192 73 208 73 17 0 130 -12 252 -27 122 -14 227 -26 235 -26 21 1 -25 23 -218 105 -241 104 -260 110 -404 140 -69 14 -137 30 -152 35 -16 5 -28 6 -28 2 0 -4 26 -29 57 -57 l57 -51 -29 -68 c-30 -71 -35 -76 -121 -98 -31 -9 -55 -8 -103 3 -34 7 -66 16 -70 19 -5 3 -20 29 -35 58 -31 61 -34 53 50 142 28 31 59 71 68 89 17 32 19 33 64 27 26 -4 117 -22 202 -40 85 -19 156 -33 157 -32 1 1 -48 160 -51 163 -1 2 -54 12 -117 23 -63 10 -146 26 -186 33 l-72 14 -168 -116z"/>
    <path d="M6415 6054 c-190 -42 -350 -137 -520 -308 -165 -166 -267 -303 -505 -686 -189 -304 -300 -452 -449 -598 -209 -206 -492 -354 -704 -369 -43 -3 -74 -9 -70 -14 4 -4 43 -17 86 -28 292 -76 541 -39 778 114 136 88 381 347 540 570 35 50 118 177 184 284 259 416 471 649 740 814 143 88 347 136 489 117 43 -6 80 -9 83 -6 9 8 -108 62 -197 91 -74 24 -104 28 -235 31 -110 3 -169 -1 -220 -12z"/>
    <path d="M8540 6051 c-357 -78 -639 -321 -985 -850 -223 -341 -324 -473 -478 -630 -212 -215 -430 -349 -642 -396 -59 -13 -106 -16 -189 -13 l-111 5 82 -39 c135 -64 216 -81 378 -81 166 -1 248 18 390 87 247 120 476 347 709 706 263 404 399 586 557 742 131 128 250 216 384 283 141 70 259 104 393 112 94 6 102 7 79 19 -13 8 -65 25 -113 40 -122 36 -328 43 -454 15z"/>
    <path d="M4356 6014 c-104 -8 -191 -16 -193 -18 -7 -7 41 -156 50 -156 8 0 338 135 427 174 l35 15 -65 -1 c-36 0 -150 -7 -254 -14z"/>
    <path d="M4530 5914 c-135 -57 -249 -105 -255 -107 -5 -3 1 -9 15 -15 14 -6 115 -49 225 -96 110 -47 236 -101 280 -121 44 -19 85 -35 90 -35 11 0 140 227 140 245 0 13 -230 235 -241 234 -5 0 -119 -48 -254 -105z"/>
    <path d="M5010 5882 c0 -5 10 -18 23 -29 43 -40 511 -386 523 -387 6 -1 44 42 84 94 40 52 87 112 104 133 41 52 29 58 -118 55 l-118 -2 -45 52 c-50 58 -58 60 -162 38 -63 -13 -66 -12 -170 20 -116 37 -121 38 -121 26z"/>
    <path d="M8980 5088 c0 -442 3 -813 6 -826 6 -20 12 -23 48 -20 l41 3 2 800 c2 440 0 810 -3 823 -5 19 -13 22 -50 22 l-44 0 0 -802z"/>
    <path d="M6755 5861 c-39 -10 -100 -32 -135 -48 l-64 -29 83 -16 c238 -47 472 -230 697 -546 l73 -103 92 137 c77 116 90 140 81 158 -16 35 -165 208 -233 271 -79 72 -175 135 -254 165 -85 32 -243 37 -340 11z"/>
    <path d="M3757 5806 c-20 -58 -21 -109 -6 -171 19 -73 35 -76 55 -9 19 66 15 120 -13 184 l-19 45 -17 -49z"/>
    <path d="M8618 5764 l-38 -24 0 -184 c0 -100 3 -407 7 -681 l6 -497 33 -14 c18 -8 38 -14 44 -14 11 0 15 1376 4 1418 -8 27 -10 27 -56 -4z"/>
    <path d="M5006 5632 c-36 -66 -66 -122 -66 -126 0 -3 43 -74 95 -156 118 -185 138 -225 163 -323 19 -74 28 -96 35 -86 2 2 48 76 102 164 54 88 121 192 147 232 26 40 48 74 48 77 0 5 -380 287 -427 317 l-31 20 -66 -119z"/>
    <path d="M3135 5686 c-16 -7 -267 -93 -557 -191 -291 -99 -528 -182 -528 -185 0 -3 12 -20 28 -37 l27 -31 280 47 280 47 155 66 c85 36 201 85 258 108 56 24 105 47 108 52 4 6 9 39 12 74 5 71 -2 77 -63 50z"/>
    <path d="M6580 5052 c0 -705 -5 -652 61 -652 l29 0 -2 643 -3 642 -42 3 -43 3 0 -639z" id="object-0"/>
    <path d="M4110 5531 c-41 -16 -97 -39 -125 -51 -27 -12 -81 -32 -119 -46 l-69 -24 -284 55 -283 56 -187 -79 c-104 -44 -221 -92 -262 -108 -40 -15 -75 -33 -77 -39 -3 -6 19 -78 49 -160 49 -138 55 -149 82 -157 17 -5 111 -27 210 -49 202 -46 218 -46 451 -10 147 22 159 27 556 238 l186 100 84 -14 c125 -20 770 -104 774 -101 1 2 -45 80 -104 173 l-107 170 -65 7 c-36 3 -188 20 -337 37 -150 17 -278 31 -285 31 -7 -1 -47 -14 -88 -29z"/>
    <path d="M6202 5497 l-42 -43 2 -393 3 -393 43 -36 42 -35 0 472 c0 259 -1 471 -3 471 -2 0 -22 -19 -45 -43z"/>
    <path d="M8233 5445 l-43 -48 0 -341 1 -341 39 -44 c22 -25 42 -42 45 -39 3 2 4 198 3 433 l-3 429 -42 -49z"/>
    <path d="M7000 5043 l1 -438 44 50 45 49 0 344 c0 374 1 365 -60 410 l-30 23 0 -438z"/>
    <path d="M1608 5377 c-93 -34 -97 -38 -230 -212 l-45 -60 14 -95 c7 -52 18 -97 24 -101 6 -3 69 -16 139 -29 l127 -22 117 39 117 38 89 140 88 140 -21 38 c-27 49 -43 62 -97 80 -25 8 -81 29 -125 46 -44 17 -86 31 -95 30 -8 0 -54 -15 -102 -32z"/>
    <path d="M2380 5240 c-118 -22 -230 -39 -247 -40 -29 0 -37 -7 -75 -67 -24 -38 -62 -97 -86 -132 -24 -34 -41 -65 -38 -68 2 -3 83 -24 179 -47 162 -38 181 -41 268 -35 87 6 104 11 229 67 159 71 153 53 86 237 -42 113 -46 120 -73 122 -15 1 -125 -16 -243 -37z"/>
    <path d="M4125 5129 c-303 -166 -474 -249 -515 -249 -38 0 -42 -3 -68 -46 -54 -93 -51 -92 -100 -29 -24 30 -50 55 -57 55 -8 0 -33 -36 -55 -80 -22 -44 -44 -80 -50 -80 -5 0 -21 21 -36 48 -34 59 -73 112 -82 112 -5 0 -28 -41 -52 -90 -24 -50 -49 -89 -54 -87 -6 2 -21 30 -34 63 -43 108 -71 164 -82 164 -5 0 -28 -38 -49 -85 -22 -47 -45 -85 -51 -85 -6 0 -30 43 -55 95 -31 68 -48 93 -58 89 -8 -3 -32 -58 -54 -122 -22 -64 -44 -117 -48 -117 -4 0 -27 34 -50 75 -23 41 -49 76 -58 78 -14 3 -30 -30 -92 -185 -10 -24 -21 -43 -25 -43 -4 0 -24 37 -44 83 -37 81 -61 117 -78 117 -5 0 -27 -40 -50 -90 -22 -49 -45 -90 -49 -90 -5 0 -9 1 -9 3 -2 23 -92 223 -102 225 -8 2 -28 -28 -53 -78 -21 -44 -42 -80 -45 -80 -4 0 -25 42 -46 93 -22 51 -46 92 -53 92 -8 0 -31 -46 -57 -114 -43 -115 -54 -134 -61 -116 -17 43 -90 170 -100 173 -7 2 -28 -28 -48 -67 -19 -39 -39 -71 -43 -71 -4 0 -26 36 -47 80 -22 44 -44 79 -49 77 -6 -2 -18 -34 -27 -70 l-17 -68 62 -41 c33 -23 99 -70 145 -105 59 -44 90 -61 105 -58 40 9 401 57 472 62 40 3 123 0 185 -6 200 -20 1038 -101 1204 -116 88 -8 178 -17 201 -20 45 -5 11 -27 447 297 l189 141 251 97 c139 53 269 103 290 109 36 12 51 31 23 31 -8 0 -175 20 -372 45 -196 25 -364 45 -373 45 -9 -1 -65 -28 -126 -61z"/>
    <path d="M4950 5008 c-58 -23 -193 -76 -301 -118 l-197 -77 -228 -168 c-126 -93 -255 -188 -286 -212 l-58 -44 55 -107 c30 -59 58 -113 63 -119 8 -13 38 -2 432 157 85 34 167 69 182 76 17 9 88 106 199 271 95 142 192 286 216 321 25 34 41 62 36 61 -4 0 -55 -19 -113 -41z"/>
    <path d="M4942 4763 c-106 -159 -212 -315 -235 -347 l-42 -60 -244 -98 c-134 -53 -246 -100 -250 -104 -8 -9 69 4 164 27 105 25 297 121 405 203 108 81 263 241 364 375 l79 104 -18 81 c-10 44 -21 87 -25 94 -3 7 -83 -103 -198 -275z"/>
    <path d="M5771 4908 c-28 -46 -68 -110 -90 -142 l-40 -59 52 -75 c68 -97 182 -219 260 -278 185 -140 396 -159 627 -55 45 20 44 25 -9 36 -123 26 -322 149 -450 276 -86 87 -193 222 -252 321 -19 32 -37 58 -41 58 -4 0 -29 -37 -57 -82z"/>
    <path d="M7833 4918 c-25 -40 -65 -103 -88 -139 l-43 -66 69 -91 c297 -394 636 -589 989 -569 115 7 260 41 337 80 l46 24 -114 6 c-245 11 -501 128 -731 334 -127 113 -273 284 -373 436 -21 31 -39 57 -41 57 -2 0 -25 -33 -51 -72z"/>
    <path d="M5504 4533 c-48 -58 -130 -149 -181 -201 -52 -52 -92 -96 -90 -98 2 -2 108 24 237 57 154 40 257 61 298 62 34 0 62 3 62 5 0 2 -27 34 -61 70 -34 37 -86 100 -116 140 -30 39 -55 72 -57 72 -2 0 -43 -48 -92 -107z"/>
    <path d="M2063 4502 c-68 -9 -123 -18 -123 -22 0 -8 460 -86 1135 -190 143 -23 395 -63 559 -90 165 -27 302 -48 304 -45 2 2 -22 51 -54 109 -66 122 -28 106 -314 131 -96 9 -330 31 -520 50 -848 84 -793 81 -987 57z"/>
  </g>
</svg>